# xmcd
#
# Track frame offsets:
#	150
#	13675
#	24845
#	37368
#	49028
#	60663
#	73418
#	86438
#	99788
#	113233
#	128868
#	144040
#	159030
#	171743
#	183545
#	197705
#	210213
#	223643
#	238383
#	253830
#	266213
#	275928
#	289513
#	302938
#	316315
#
# Disc length: 4386 seconds
#
# Revision: 1
# Processed by: cddbd v1.4PL0 Copyright (c) Steve Scherf et al.
# Submitted via: CDmax 1.9
#
DISCID=7a112019
DTITLE=Various Artist - Sissy Man Blues
DYEAR=1989
DGENRE=Blues
TTITLE0=Connie McLean's Rhythm Boys - Sissy Man Blues
TTITLE1=Harlem Hamfats - Garbage Man (The Call of the Freaks)
TTITLE2=Tampa Red's Hokum Jug Band - It's Tight Like That
TTITLE3=Ma Rainey and her Tub Jug Washboard Band - Prove It On Me Blues
TTITLE4=George Hannah and Meade Lux Lewis - The Boy In the Boat
TTITLE5=George Hannah and Meade Lux Lewis - Freakish Man Blues
TTITLE6=Bessie Jackson and Walter Roland - B. D. Woman's Blues
TTITLE7=Speckled Red - Dirty Dozens
TTITLE8=Al Miller and his Swing Stompers - Ain't That a Mess?
TTITLE9=Peg Leg Howell - Fairey Blues
TTITLE10=Bert "Snake Root" Hatton - Freakish Rider Blues
TTITLE11=Victoria Spivey and Lonnie Johnson - Toothache Blues
TTITLE12=Maggie Jones with Loius Armstrong - Anybody Here Want To Try My Cabba
TTITLE12=ge?
TTITLE13=Lil Johnson - Take Your Hand Off It
TTITLE14=Washboard Sam and his Washboard Band - I'm Gonna Keep My Hair Parted
TTITLE15=Sippie Wallace and Herschal Thomas - I'm a Mighty Tight Woman
TTITLE16=Mae Glover and John Bird - Gas Man Blues
TTITLE17=Victoria Spivey - Black Snake Blues
TTITLE18=Blanche Calloway and her Joy Boys - I Got What It Takes
TTITLE19=Hokum Boys - Somebody's Been Usin' That Thing
TTITLE20=Papa Charlie Jackson - Shave 'Em Dry
TTITLE21=Monette Moore and her Swing Shop Boys - Two Old Maids In a Folding Be
TTITLE21=d
TTITLE22=Ruby Glaze and Blind Willie McTell - Rollin' Mama Blues
TTITLE23=Ruth Ladson and Three Shadows - Windy City Blues
TTITLE24="Pinewood Tom" (Josh White) - Sissy Man Blues
EXTD=LABEL =Jass Records, Inc.\nID =J-CD-13\nUPC =03250-12013-27\nCOPYRIGHT
EXTD==1989
EXTT0=
EXTT1=
EXTT2=
EXTT3=
EXTT4=
EXTT5=
EXTT6=
EXTT7=
EXTT8=
EXTT9=
EXTT10=
EXTT11=
EXTT12=
EXTT13=
EXTT14=
EXTT15=
EXTT16=
EXTT17=
EXTT18=
EXTT19=
EXTT20=
EXTT21=
EXTT22=
EXTT23=
EXTT24=
PLAYORDER=
